<?xml version="1.0" ?><svg height="512px" version="1.1" viewBox="0 0 512 512" width="512px" xmlns="http://www.w3.org/2000/svg" xmlns:xlink="http://www.w3.org/1999/xlink"><title/><desc/><defs/><g fill="none" fill-rule="evenodd" id="SVG" stroke="none" stroke-width="1"><g id="Bread"><g id="2" transform="translate(0.000000, 72.000000)"><path d="M255.445103,34.0435515 C231.180454,22.2948554 197.291589,13.4366565 150.277535,13.4366565 C103.263481,13.4366565 69.3746162,22.2948554 45.1099676,34.0435515 C9.13850811,51.4556863 -1.03922162,107.889535 24.8582919,143.004238 C33.1609946,154.261964 37.7551568,168.880413 37.7551568,184.031321 L37.7551568,324.607686 C37.7551568,341.563427 51.5099676,355.317492 68.4751568,355.317492 L150.277535,355.317492 L232.072995,355.317492 C249.045103,355.317492 262.799914,341.563427 262.799914,324.607686 L262.799914,184.031321 C262.799914,168.880413 267.394076,154.261964 275.696778,143.004238 C301.594292,107.889535 291.416562,51.4556863 255.445103,34.0435515" fill="#F8E6C4" id="Fill-1"/><path d="M464.984562,34.0435515 C442.684886,23.2491344 412.130941,14.7228587 370.873427,13.4366565 L164.115373,13.4366565 L164.115373,13.7616646 C203.989103,15.3244694 233.643589,23.4911617 255.445103,34.0435515 C291.416562,51.4556863 301.594292,107.889535 275.696778,143.004238 C267.394076,154.261964 262.799914,168.880413 262.799914,184.031321 L262.799914,324.607686 C262.799914,341.563427 249.045103,355.317492 232.072995,355.317492 L278.014616,355.317492 L359.816995,355.317492 L370.873427,355.317492 L441.612454,355.317492 C458.584562,355.317492 472.339373,341.563427 472.339373,324.607686 L472.339373,184.031321 C472.339373,168.880413 476.933535,154.261964 485.236238,143.004238 C511.133751,107.889535 500.956022,51.4556863 464.984562,34.0435515" fill="#FBAE3A" id="Fill-3"/><path d="M488.427243,55.9248931 C487.804541,58.0616483 485.279135,127.502736 284.319135,127.502736 L284.263784,127.523481 C282.04973,132.972552 279.240649,138.200342 275.698162,143.006312 C271.941189,148.0958 268.99373,153.890625 266.841946,160.093439 C266.184649,161.981252 265.603459,163.910555 265.098378,165.867519 L376.880432,165.867519 C376.880432,165.867519 413.785946,167.679266 413.785946,205.62223 L413.785946,240.294368 L413.785946,355.312651 L441.613838,355.312651 C458.585946,355.312651 472.340757,341.565501 472.340757,324.609761 L472.340757,184.033395 C472.340757,175.728402 473.766054,167.610115 476.374486,160.093439 L476.381405,160.093439 C478.533189,153.890625 481.480649,148.0958 485.237622,143.006312 C504.050162,117.496636 503.74573,80.8052986 488.427243,55.9248931" fill="#010202" id="Fill-5" opacity="0.15"/><path d="M476.883719,136.849138 C467.252584,149.897866 461.959611,166.659985 461.959611,184.030629 L461.959611,324.606995 C461.959611,335.816316 452.826638,344.944202 441.61107,344.944202 L267.745557,344.944202 L267.738638,344.944202 C271.184259,338.941925 273.183827,332.006115 273.183827,324.606995 L273.183827,184.030629 C273.183827,171.057967 277.037665,158.666169 284.04653,149.157954 C299.15053,128.682446 304.291286,100.800902 297.801341,74.5582285 C292.176259,51.793833 278.386854,33.621041 259.968692,24.7075217 C259.311395,24.3894287 258.598746,24.1197411 257.927611,23.8085632 L370.553773,23.8085632 C405.632692,24.9011435 435.882205,31.4842858 460.458205,43.3781984 C473.306638,49.5948422 483.055395,62.7749569 487.192908,79.5301605 C492.222962,99.8535378 488.362205,121.283326 476.883719,136.849138 L476.883719,136.849138 Z M243.508584,364.036698 C243.107286,364.154254 242.69907,364.24415 242.290854,364.354791 C242.69907,364.24415 243.107286,364.154254 243.508584,364.036698 L243.508584,364.036698 Z M238.554638,365.129278 C238.084151,365.198429 237.620584,365.28141 237.150097,365.343645 C237.620584,365.28141 238.084151,365.198429 238.554638,365.129278 L238.554638,365.129278 Z M253.430314,359.645631 C253.153557,359.811593 252.890638,359.977555 252.613881,360.136601 C252.890638,359.977555 253.160476,359.811593 253.430314,359.645631 L253.430314,359.645631 Z M257.498638,356.824285 C257.353341,356.941841 257.201124,357.045567 257.055827,357.156208 C257.201124,357.045567 257.353341,356.941841 257.498638,356.824285 L257.498638,356.824285 Z M264.936476,349.176222 C264.84653,349.300694 264.756584,349.41825 264.666638,349.542721 C264.756584,349.41825 264.84653,349.300694 264.936476,349.176222 L264.936476,349.176222 Z M213.605016,9.28001069 C213.999395,9.36299148 214.379935,9.45980239 214.774314,9.54969825 C214.379935,9.45980239 213.999395,9.36299148 213.605016,9.28001069 L213.605016,9.28001069 Z M200.881124,6.93580351 C201.538422,7.03952949 202.181881,7.15017054 202.832259,7.26081158 C202.181881,7.15017054 201.538422,7.03952949 200.881124,6.93580351 L200.881124,6.93580351 Z M187.818205,5.16554676 C188.503178,5.24161248 189.181232,5.32459326 189.852368,5.40065898 C189.181232,5.32459326 188.503178,5.24161248 187.818205,5.16554676 L187.818205,5.16554676 Z M174.609989,3.96924043 C175.128908,4.01073083 175.661665,4.03839109 176.180584,4.07988148 C175.661665,4.03839109 175.128908,4.01073083 174.609989,3.96924043 L174.609989,3.96924043 Z M68.4806919,344.944202 C57.2651243,344.944202 48.1321514,335.816316 48.1321514,324.606995 L48.1321514,184.030629 C48.1321514,166.659985 42.8391784,149.897866 33.2080432,136.849138 C21.7295568,121.283326 17.8757189,99.8535378 22.905773,79.5301605 C27.0432865,62.7749569 36.7920432,49.5948422 49.6335568,43.3781984 C76.4512865,30.3917055 110.319395,23.8085632 150.276151,23.8085632 C190.232908,23.8085632 224.101016,30.3917055 250.918746,43.3781984 C263.767178,49.5948422 273.509016,62.7749569 277.653449,79.5301605 C282.683503,99.8535378 278.822746,121.283326 267.337341,136.849138 C257.720043,149.904782 252.42707,166.659985 252.42707,184.030629 L252.42707,324.606995 C252.42707,335.816316 243.294097,344.944202 232.071611,344.944202 L68.4806919,344.944202 Z M507.3408,74.5582285 C501.715719,51.793833 487.926314,33.621041 469.51507,24.7075217 C442.289124,11.534322 409.216692,4.25275812 370.878962,3.06336686 L164.113989,3.06336686 C163.352908,3.06336686 162.612584,3.16017778 161.899935,3.31230922 L161.899935,3.31230922 C158.059935,3.1947531 154.219935,3.06336686 150.276151,3.06336686 C107.15053,3.06336686 70.2519351,10.3518458 40.5766919,24.7075217 C22.1654486,33.621041 8.38296216,51.793833 2.75788108,74.5513134 C-3.73898378,100.793987 1.40177297,128.682446 16.505773,149.157954 C23.5146378,158.666169 27.3753946,171.051052 27.3753946,184.030629 L27.3753946,324.606995 C27.3753946,347.260749 45.8143135,365.689399 68.4806919,365.689399 L232.071611,365.689399 L441.61107,365.689399 C464.277449,365.689399 482.716368,347.260749 482.716368,324.606995 L482.716368,184.030629 C482.716368,171.051052 486.577124,158.666169 493.585989,149.157954 C508.689989,128.682446 513.830746,100.800902 507.3408,74.5582285 L507.3408,74.5582285 Z" fill="#2E2E30" id="Fill-7"/></g></g></g></svg>