<?xml version="1.0" encoding="utf-8"?>
<!-- Generator: Adobe Illustrator 15.1.0, SVG Export Plug-In . SVG Version: 6.00 Build 0)  -->
<!DOCTYPE svg PUBLIC "-//W3C//DTD SVG 1.1//EN" "http://www.w3.org/Graphics/SVG/1.1/DTD/svg11.dtd">
<svg version="1.1" xmlns="http://www.w3.org/2000/svg" xmlns:xlink="http://www.w3.org/1999/xlink" x="0px" y="0px" width="500px"
	 height="500px" viewBox="0 0 500 500" enable-background="new 0 0 500 500" xml:space="preserve">
<g id="Layer_5">
	<path fill="#996632" d="M420.496,197.023c-0.19,1.46-0.46,2.89-0.801,4.27c-0.68,2.78-1.659,5.38-2.92,7.74
		c-0.46,1.25-0.939,2.5-1.46,3.74c-1.31,3.16-2.779,6.28-4.34,9.48c-0.28,0.56-0.55,1.12-0.83,1.68c-0.84,1.49-1.01,3.42-0.97,5.44
		c0.03,2.02,0.28,4.13,0.26,6c0.03,1.29,0.07,2.6,0.11,3.91c1.229,43.33,2.75,96.43,2.75,96.43c0.22,7.5-4.2,11.391-9.24,11.381
		l-175.61,29.209h-0.02c-1.4,0.58-2.99,0.721-4.69,0.33l-8.61-1.959l-104.25-23.67c-5.89-1.34-10.85-8.512-11.06-16.012
		c0,0-1.61-56.369-2.87-100.339c-0.04-1.29-0.08-2.58-0.11-3.85c-2.02-16.57-13.4-33.52-10.96-49.98c0.27-1.83,0.71-3.65,1.35-5.47
		c1.19-4.54,3.28-7.88,5.99-10.2c0.91-0.77,1.88-1.43,2.91-1.99c3.22-3.05,6.79-5.17,10.57-6.36c1.82-0.59,3.7-0.95,5.6-1.08
		c0.43-0.04,0.87-0.06,1.31-0.07l167.9-27.87c5.859-0.55,7.83-1.97,11.939-1.97c1.37,0,2.98,0.16,5.061,0.56
		c1.37,0.27,2.76,0.64,4.12,1.08c8.34,1.15,16.54,4.73,24.47,10.07c1.15,0.77,2.29,1.59,3.43,2.43c0.17,0.13,0.34,0.25,0.511,0.38
		c2.68,2.52,5.34,4.22,8,5.34h0.01c4.609,1.95,9.189,2.16,13.83,1.92c0.25-0.01,0.489-0.03,0.739-0.04
		c1.25-0.07,2.521-0.17,3.78-0.3c9.47-2.43,20.141-2.3,30.17,0.43c1.431,0.39,2.851,0.83,4.25,1.32
		C407.306,155.833,423.775,175.313,420.496,197.023z"/>
</g>
<g id="Layer_2">
	<path fill="#FFFFFF" stroke="#000000" stroke-miterlimit="10" d="M241.216,226.783c-0.19,1.46-0.46,2.89-0.8,4.27
		c-0.68,2.78-1.66,5.38-2.92,7.74c-0.46,1.26-0.94,2.5-1.46,3.74c-1.54,3.71-3.3,7.37-5.18,11.16c-0.43,0.76-0.68,1.64-0.82,2.58
		c-0.41,2.75,0.15,6.09,0.11,8.869c0.04,1.291,0.08,2.59,0.11,3.9c1.24,43.33,2.76,96.439,2.76,96.439
		c0.16,5.33-2.12,9.391-5.57,10.82h-0.02c-1.4,0.58-2.99,0.721-4.69,0.33l-8.61-1.959l-104.25-23.67
		c-5.89-1.34-10.85-8.512-11.06-16.012c0,0-1.61-56.369-2.87-100.339c-0.04-1.29-0.08-2.58-0.11-3.85
		c-2.02-16.57-13.4-33.52-10.96-49.98c0.27-1.83,0.71-3.65,1.35-5.47c1.19-4.54,3.28-7.88,5.99-10.2c0.91-0.77,1.88-1.43,2.91-1.99
		c3.22-3.05,6.79-5.17,10.57-6.36c1.82-0.59,3.7-0.95,5.6-1.08c0.43-0.04,0.87-0.06,1.31-0.07c1.85-0.05,3.73,0.11,5.61,0.48
		c1.38,0.27,2.76,0.64,4.13,1.08c8.34,1.15,16.54,4.73,24.47,10.07c1.32,0.89,2.63,1.83,3.94,2.81c2.01,1.89,4.01,3.31,5.99,4.38
		c5.54,2.98,11.03,3.18,16.58,2.85c1.26-0.08,2.53-0.18,3.79-0.31c9.47-2.43,20.14-2.3,30.17,0.43c1.43,0.39,2.85,0.83,4.25,1.33
		C228.026,185.593,244.496,205.073,241.216,226.783z"/>
	<line fill="none" stroke="#000000" stroke-miterlimit="10" x1="280.503" y1="127.786" x2="284.966" y2="127.044"/>
	<path fill="none" stroke="#000000" stroke-miterlimit="10" d="M227.426,376.303h0.02l18.27-3.039l142.63-23.721l14.71-2.449
		c5.04,0.01,9.46-3.881,9.24-11.381c0,0-1.521-53.1-2.75-96.43c-0.04-1.31-0.08-2.62-0.11-3.91c0.021-1.87-0.229-3.98-0.26-6
		c-0.04-2.02,0.13-3.95,0.97-5.44c0.28-0.56,0.55-1.12,0.83-1.68c0.021-0.03,0.03-0.07,0.05-0.1c1.54-3.17,2.99-6.25,4.29-9.38
		c0.521-1.24,1-2.49,1.46-3.74c1.261-2.36,2.24-4.96,2.92-7.74c0.341-1.38,0.61-2.81,0.801-4.27
		c3.279-21.71-13.19-41.19-29.681-48.02c-1.399-0.49-2.819-0.93-4.25-1.32c-10.029-2.73-20.7-2.86-30.17-0.43
		c-1.26,0.13-2.53,0.23-3.78,0.3c-0.25,0.01-0.489,0.03-0.739,0.04c-4.641,0.24-9.221,0.03-13.83-1.92h-0.01
		c-2.66-1.12-5.32-2.82-8-5.34c-0.171-0.13-0.341-0.25-0.511-0.38c-1.14-0.84-2.279-1.66-3.43-2.43
		c-7.93-5.34-16.13-8.92-24.47-10.07c-1.36-0.44-2.75-0.81-4.12-1.08c-2.08-0.4-3.69-0.56-5.061-0.56
		c-4.109,0-6.08,1.42-11.939,1.97l-115.27,19.13l-52.63,8.74l-1.28,0.22l-5.63,0.93l-0.05,0.01"/>
</g>
<g id="Layer_6">
	<path opacity="0.51" fill="#C49A6C" d="M241.216,226.783c-0.19,1.46-0.46,2.89-0.8,4.27c-0.68,2.78-1.66,5.38-2.92,7.74
		c-0.46,1.26-0.94,2.5-1.46,3.74c-1.54,3.71-3.3,7.37-5.18,11.16c-0.43,0.76-0.68,1.64-0.82,2.58c-0.41,2.75,0.15,6.09,0.11,8.869
		c0.04,1.291,0.08,2.59,0.11,3.9c1.24,43.33,2.76,96.439,2.76,96.439c0.16,5.33-2.12,9.391-5.57,10.82h-0.02
		c-1.4,0.58-2.99,0.721-4.69,0.33l-8.61-1.959l-104.25-23.67c-5.89-1.34-10.85-8.512-11.06-16.012c0,0-1.61-56.369-2.87-100.339
		c-0.04-1.29-0.08-2.58-0.11-3.85c-2.02-16.57-13.4-33.52-10.96-49.98c0.27-1.83,0.71-3.65,1.35-5.47c1.19-4.54,3.28-7.88,5.99-10.2
		c0.91-0.77,1.88-1.43,2.91-1.99c3.22-3.05,6.79-5.17,10.57-6.36c1.82-0.59,3.7-0.95,5.6-1.08c0.43-0.04,0.87-0.06,1.31-0.07
		c1.85-0.05,3.73,0.11,5.61,0.48c1.38,0.27,2.76,0.64,4.13,1.08c8.34,1.15,16.54,4.73,24.47,10.07c1.32,0.89,2.63,1.83,3.94,2.81
		c2.01,1.89,4.01,3.31,5.99,4.38c5.54,2.98,11.03,3.18,16.58,2.85c1.26-0.08,2.53-0.18,3.79-0.31c9.47-2.43,20.14-2.3,30.17,0.43
		c1.43,0.39,2.85,0.83,4.25,1.33C228.026,185.593,244.496,205.073,241.216,226.783z"/>
</g>
<g id="Layer_4">
	<path opacity="0.16" fill="#603913" d="M159.806,175.853c0.08-0.04,0.15-0.06,0.23-0.09c0.05,0.08,2.47,0.557,2.52,0.627
		c1.25,0.417,1.917,0.417,3.333,0.667c1.083,0.191,2.767,0.359,3.847,0.159c28.84-5.48,57.049-8.002,86.129-11.963
		c14.061-1.92,28.181-3.73,42.171-6.1c1.13-0.19,2.25-0.38,3.369-0.58c15.15-2.66,40.679-4.35,46.258-7.18
		c1.203-0.611,2.316-1.009,4.213-3.8c-4.641,0.24-9.221,0.03-13.83-1.92h-0.01c-2.66-1.12-5.32-2.82-8-5.34
		c-0.171-0.13-0.341-0.25-0.511-0.38c-12.83,2.23-25.62,4.87-38.54,6.58c-1.399,0.19-2.8,0.37-4.199,0.53
		c-15.2,1.77-30.471,2.72-45.57,5.31c-15.05,2.59-29.24,7.93-44.52,9.57c-14.62,1.57-29.95-0.13-43.66,5.96
		c-1.18,0.52-1.93,1.3-2.3,2.17L159.806,175.853z"/>
	<path opacity="0.46" fill="#603913" d="M381,235.369"/>
	<path opacity="0.16" fill="#3C2415" d="M388.556,243.39c4.237,6.096,6.701,15.452,7.048,22.762
		c0.303,6.386-0.279,12.816-0.156,19.2c0.114,5.896,1.785,11.581,2.171,17.446c1.014,15.436-0.285,33.76-9.063,46.924
		c2-1,4-1,6.025-1.406c2.025-0.404,4.076-0.717,6.177-0.84c1.379-0.23,2.298-0.383,2.298-0.383c5.04,0.01,9.46-3.881,9.24-11.381
		c0,0-0.018-0.625-0.051-1.795c-0.689-11.195-0.689-21.195-0.697-32.016c-0.014-1.459-0.025-2.912-0.037-4.374
		c-0.023-2.923-0.046-5.879-0.076-8.903c-0.027-1.563-0.062-3.133-0.104-4.713c-0.13-4.738-0.343-9.568-0.684-14.597
		c-0.093-1.799-0.192-3.603-0.295-5.411c-0.206-3.62-0.427-7.267-0.637-10.962c-0.026-1.203-0.049-2.4-0.068-3.592
		c-0.05-2.979-0.083-5.924-0.132-8.845c0.041-5.782,0.041-11.782,1.462-18.252c-0.13-0.18,1.095-1.359,0.954-1.53
		c1.25-2.75,3.25-6.25,3.631-8.544c0.121-0.732-0.72-1.021-2.097-1.039c-1.377-0.017-3.289,0.237-5.308,0.589
		c-1.211,0.073-2.424,0.15-3.635,0.233c-10.967,0.76-21.967,1.76-32.989,3.196c-3.205,0.26-6.368,0.409-9.498,0.357
		c-1.551,0.092-3.088,0.193-4.616,0.31c-4.575,0.351-9.08,0.845-13.459,1.679c-1.536,0.189-3.064,0.4-4.587,0.638
		c-4.564,0.714-9.063,1.676-13.479,3.041c-1.688,0.441-3.373,0.908-5.055,1.399c-1.681,0.492-3.358,1.009-5.033,1.55
		c-1.523,0.223-3.047,0.438-4.572,0.647c-13.726,1.879-27.523,3.242-41.248,5.123c-7.649,1.05-15.26,2.31-22.82,3.85
		c-2.58,0.52-5.36,1.01-8.13,1.67l-1.01,2.33l-0.07,0.14l-0.91,2.09l-4.38,10.02c0,0-2.55,5.81-2.55,5.82
		c0.18,0.13,0.37,0.239,0.58,0.34c0.91,0.431,1.98,0.601,3.19,0.38c4.106-0.756,8.275-0.853,12.445-0.777
		c1.39,0.025,2.78,0.069,4.168,0.103c1.631-0.269,3.263-0.472,4.891-0.633c15.165-3.513,31.165-4.512,46.361-8.028
		c1.494-0.31,2.989-0.611,4.485-0.904c4.49-0.878,8.994-1.68,13.509-2.391c1.321-0.208,2.645-0.411,3.973-0.621
		c1.604-0.446,3.228-0.836,4.864-1.184c1.641-0.347,3.298-0.651,4.998-0.935c3.195-0.09,6.351-0.482,9.482-1.018
		c1.565-0.268,3.127-0.571,4.694-0.894c1.6-0.192,3.218-0.455,4.849-0.75c1.633-0.294,3.277-0.622,4.929-0.945
		c3.34-0.615,6.679-1.136,10.002-1.354c7.019-0.49,15.353-0.844,19.212,3.976"/>
</g>
</svg>
