<?xml version="1.0" encoding="iso-8859-1"?>
<!-- Generator: Adobe Illustrator 19.0.0, SVG Export Plug-In . SVG Version: 6.00 Build 0)  -->
<svg version="1.1" id="Layer_1" xmlns="http://www.w3.org/2000/svg" xmlns:xlink="http://www.w3.org/1999/xlink" x="0px" y="0px"
	 viewBox="0 0 512 512" style="enable-background:new 0 0 512 512;" xml:space="preserve">
<path style="fill:#E0A03D;" d="M216.459,41.099C85.671,52.629,7.604,142.674,7.604,142.674v328.342h496.792V142.674L216.459,41.099z
	"/>
<g>
	<circle style="fill:#F6E088;" cx="251.407" cy="152.809" r="55.935"/>
	<path style="fill:#F6E088;" d="M7.604,379.638v91.377h91.377C98.981,420.55,58.07,379.638,7.604,379.638z"/>
	<path style="fill:#F6E088;" d="M438.495,266.196c0,36.396,29.505,65.901,65.901,65.901V200.295
		C468,200.295,438.495,229.8,438.495,266.196z"/>
	<circle style="fill:#F6E088;" cx="135.35" cy="288.504" r="38.527"/>
	<path style="fill:#F6E088;" d="M320.887,335.14c-48.488,0-87.795,39.307-87.795,87.795c0,17.752,5.273,34.268,14.332,48.081H394.35
		c9.059-13.812,14.332-30.33,14.332-48.081C408.682,374.446,369.375,335.14,320.887,335.14z"/>
</g>
<g>
	<path style="fill:#491E17;" d="M217.434,33.38l-1.642,0.145C146.629,39.622,92.224,67.54,58.762,89.887
		c-36.298,24.242-56.08,46.855-56.904,47.806L0,139.837v232.198V478.62h106.585h136.731h155.141H512V339.7V192.69v-55.398
		L217.434,33.38z M15.208,463.412v-75.828c40.139,3.629,72.199,35.689,75.828,75.828H15.208z M251.652,463.412
		c-7.179-12.25-10.956-26.16-10.956-40.477c0-44.218,35.973-80.191,80.191-80.191s80.191,35.974,80.191,80.191
		c0,14.318-3.777,28.227-10.956,40.477H251.652z M407.284,463.412c5.914-12.6,9.002-26.373,9.002-40.477
		c0-52.603-42.796-95.399-95.399-95.399s-95.399,42.796-95.399,95.399c0,14.105,3.088,27.877,9.002,40.477H106.296
		c-3.704-48.529-42.559-87.384-91.088-91.088V150.278h83.644V135.07H25.885c9.208-8.57,23.31-20.545,41.757-32.825
		c31.643-21.063,82.885-47.335,147.852-53.422l244.49,86.247H312.401c-7.699-26.423-32.12-45.791-60.995-45.791
		s-53.296,19.369-60.995,45.791h-71.281v15.208h68.806c-0.033,0.843-0.065,1.685-0.065,2.536c0,35.033,28.502,63.535,63.535,63.535
		s63.535-28.502,63.535-63.535c0-0.85-0.03-1.693-0.065-2.536h181.916v42.807c-36.971,3.817-65.901,35.149-65.901,73.112
		s28.93,69.295,65.901,73.112v124.104H407.284z M299.733,152.812c0,26.647-21.679,48.327-48.327,48.327
		s-48.327-21.679-48.327-48.327s21.679-48.327,48.327-48.327C278.054,104.486,299.733,126.165,299.733,152.812z M496.792,324
		c-28.567-3.737-50.693-28.235-50.693-57.803c0-29.569,22.127-54.067,50.693-57.803V324z"/>
	<path style="fill:#491E17;" d="M320.887,297.12v15.208c60.989,0,110.607,49.617,110.607,110.607h15.208
		C446.702,353.56,390.262,297.12,320.887,297.12z"/>
	<path style="fill:#491E17;" d="M135.35,242.371c-25.437,0-46.131,20.694-46.131,46.131s20.694,46.131,46.131,46.131
		s46.131-20.694,46.131-46.131C181.481,263.065,160.787,242.371,135.35,242.371z M135.35,319.424
		c-17.051,0-30.923-13.872-30.923-30.923s13.872-30.923,30.923-30.923s30.923,13.872,30.923,30.923S152.402,319.424,135.35,319.424z
		"/>
</g>
<g>
</g>
<g>
</g>
<g>
</g>
<g>
</g>
<g>
</g>
<g>
</g>
<g>
</g>
<g>
</g>
<g>
</g>
<g>
</g>
<g>
</g>
<g>
</g>
<g>
</g>
<g>
</g>
<g>
</g>
</svg>
